0
SECTION
2
HEADER
9
$ACADVER
1
AC1015
9
$INSUNITS
70
4
9
$MEASUREMENT
70
1
0
ENDSEC
0
SECTION
2
TABLES
0
TABLE
2
LAYER
70
8
0
LAYER
2
WALLS
70
0
62
7
6
CONTINUOUS
0
LAYER
2
WINDOWS
70
0
62
4
6
CONTINUOUS
0
LAYER
2
DOORS
70
0
62
1
6
CONTINUOUS
0
LAYER
2
DOOR_SWING
70
0
62
1
6
CONTINUOUS
0
LAYER
2
FURNITURE
70
0
62
8
6
CONTINUOUS
0
LAYER
2
LABELS
70
0
62
2
6
CONTINUOUS
0
LAYER
2
DIMENSIONS
70
0
62
1
6
CONTINUOUS
0
LAYER
2
TITLE_BLOCK
70
0
62
7
6
CONTINUOUS
0
ENDTAB
0
ENDSEC
0
SECTION
2
ENTITIES
0
LINE
8
WALLS
10
0.00
20
0.00
30
0.00
11
14000.00
21
0.00
31
0.00
0
LINE
8
WALLS
10
14000.00
20
0.00
30
0.00
11
14000.00
21
10000.00
31
0.00
0
LINE
8
WALLS
10
14000.00
20
10000.00
30
0.00
11
0.00
21
10000.00
31
0.00
0
LINE
8
WALLS
10
0.00
20
10000.00
30
0.00
11
0.00
21
0.00
31
0.00
0
LINE
8
WALLS
10
0.00
20
4500.00
30
0.00
11
14000.00
21
4500.00
31
0.00
0
LINE
8
WALLS
10
6000.00
20
4500.00
30
0.00
11
6000.00
21
10000.00
31
0.00
0
LINE
8
WALLS
10
10000.00
20
0.00
30
0.00
11
10000.00
21
10000.00
31
0.00
0
LINE
8
WALLS
10
5500.00
20
0.00
30
0.00
11
5500.00
21
4500.00
31
0.00
0
LINE
8
WINDOWS
10
800.00
20
9750.00
30
0.00
11
2300.00
21
9750.00
31
0.00
0
LINE
8
WINDOWS
10
2300.00
20
9750.00
30
0.00
11
2300.00
21
10250.00
31
0.00
0
LINE
8
WINDOWS
10
2300.00
20
10250.00
30
0.00
11
800.00
21
10250.00
31
0.00
0
LINE
8
WINDOWS
10
800.00
20
10250.00
30
0.00
11
800.00
21
9750.00
31
0.00
0
LINE
8
WINDOWS
10
3000.00
20
9750.00
30
0.00
11
4500.00
21
9750.00
31
0.00
0
LINE
8
WINDOWS
10
4500.00
20
9750.00
30
0.00
11
4500.00
21
10250.00
31
0.00
0
LINE
8
WINDOWS
10
4500.00
20
10250.00
30
0.00
11
3000.00
21
10250.00
31
0.00
0
LINE
8
WINDOWS
10
3000.00
20
10250.00
30
0.00
11
3000.00
21
9750.00
31
0.00
0
LINE
8
WINDOWS
10
6500.00
20
9750.00
30
0.00
11
8500.00
21
9750.00
31
0.00
0
LINE
8
WINDOWS
10
8500.00
20
9750.00
30
0.00
11
8500.00
21
10250.00
31
0.00
0
LINE
8
WINDOWS
10
8500.00
20
10250.00
30
0.00
11
6500.00
21
10250.00
31
0.00
0
LINE
8
WINDOWS
10
6500.00
20
10250.00
30
0.00
11
6500.00
21
9750.00
31
0.00
0
LINE
8
WINDOWS
10
800.00
20
-125.00
30
0.00
11
2300.00
21
-125.00
31
0.00
0
LINE
8
WINDOWS
10
2300.00
20
-125.00
30
0.00
11
2300.00
21
375.00
31
0.00
0
LINE
8
WINDOWS
10
2300.00
20
375.00
30
0.00
11
800.00
21
375.00
31
0.00
0
LINE
8
WINDOWS
10
800.00
20
375.00
30
0.00
11
800.00
21
-125.00
31
0.00
0
LINE
8
WINDOWS
10
3000.00
20
-125.00
30
0.00
11
4200.00
21
-125.00
31
0.00
0
LINE
8
WINDOWS
10
4200.00
20
-125.00
30
0.00
11
4200.00
21
375.00
31
0.00
0
LINE
8
WINDOWS
10
4200.00
20
375.00
30
0.00
11
3000.00
21
375.00
31
0.00
0
LINE
8
WINDOWS
10
3000.00
20
375.00
30
0.00
11
3000.00
21
-125.00
31
0.00
0
LINE
8
WINDOWS
10
6000.00
20
-125.00
30
0.00
11
7800.00
21
-125.00
31
0.00
0
LINE
8
WINDOWS
10
7800.00
20
-125.00
30
0.00
11
7800.00
21
375.00
31
0.00
0
LINE
8
WINDOWS
10
7800.00
20
375.00
30
0.00
11
6000.00
21
375.00
31
0.00
0
LINE
8
WINDOWS
10
6000.00
20
375.00
30
0.00
11
6000.00
21
-125.00
31
0.00
0
LINE
8
WINDOWS
10
13750.00
20
1500.00
30
0.00
11
14250.00
21
1500.00
31
0.00
0
LINE
8
WINDOWS
10
14250.00
20
1500.00
30
0.00
11
14250.00
21
2500.00
31
0.00
0
LINE
8
WINDOWS
10
14250.00
20
2500.00
30
0.00
11
13750.00
21
2500.00
31
0.00
0
LINE
8
WINDOWS
10
13750.00
20
2500.00
30
0.00
11
13750.00
21
1500.00
31
0.00
0
LINE
8
WINDOWS
10
13750.00
20
6500.00
30
0.00
11
14250.00
21
6500.00
31
0.00
0
LINE
8
WINDOWS
10
14250.00
20
6500.00
30
0.00
11
14250.00
21
7700.00
31
0.00
0
LINE
8
WINDOWS
10
14250.00
20
7700.00
30
0.00
11
13750.00
21
7700.00
31
0.00
0
LINE
8
WINDOWS
10
13750.00
20
7700.00
30
0.00
11
13750.00
21
6500.00
31
0.00
0
LINE
8
DOORS
10
2200.00
20
4500.00
30
0.00
11
3100.00
21
4500.00
31
0.00
0
LINE
8
DOORS
10
4750.00
20
4500.00
30
0.00
11
5650.00
21
4500.00
31
0.00
0
LINE
8
DOORS
10
8500.00
20
4500.00
30
0.00
11
9400.00
21
4500.00
31
0.00
0
LINE
8
DOORS
10
10000.00
20
3800.00
30
0.00
11
10000.00
21
4700.00
31
0.00
0
LINE
8
DOORS
10
10000.00
20
6200.00
30
0.00
11
10000.00
21
7100.00
31
0.00
0
LINE
8
DOORS
10
10500.00
20
10000.00
30
0.00
11
10500.00
21
10900.00
31
0.00
0
LINE
8
FURNITURE
10
400.00
20
6800.00
30
0.00
11
3400.00
21
6800.00
31
0.00
0
LINE
8
FURNITURE
10
3400.00
20
6800.00
30
0.00
11
3400.00
21
8000.00
31
0.00
0
LINE
8
FURNITURE
10
3400.00
20
8000.00
30
0.00
11
400.00
21
8000.00
31
0.00
0
LINE
8
FURNITURE
10
400.00
20
8000.00
30
0.00
11
400.00
21
6800.00
31
0.00
0
LINE
8
FURNITURE
10
400.00
20
8500.00
30
0.00
11
1600.00
21
8500.00
31
0.00
0
LINE
8
FURNITURE
10
1600.00
20
8500.00
30
0.00
11
1600.00
21
9100.00
31
0.00
0
LINE
8
FURNITURE
10
1600.00
20
9100.00
30
0.00
11
400.00
21
9100.00
31
0.00
0
LINE
8
FURNITURE
10
400.00
20
9100.00
30
0.00
11
400.00
21
8500.00
31
0.00
0
LINE
8
FURNITURE
10
2000.00
20
8500.00
30
0.00
11
3200.00
21
8500.00
31
0.00
0
LINE
8
FURNITURE
10
3200.00
20
8500.00
30
0.00
11
3200.00
21
9100.00
31
0.00
0
LINE
8
FURNITURE
10
3200.00
20
9100.00
30
0.00
11
2000.00
21
9100.00
31
0.00
0
LINE
8
FURNITURE
10
2000.00
20
9100.00
30
0.00
11
2000.00
21
8500.00
31
0.00
0
LINE
8
FURNITURE
10
1200.00
20
7900.00
30
0.00
11
2400.00
21
7900.00
31
0.00
0
LINE
8
FURNITURE
10
2400.00
20
7900.00
30
0.00
11
2400.00
21
8700.00
31
0.00
0
LINE
8
FURNITURE
10
2400.00
20
8700.00
30
0.00
11
1200.00
21
8700.00
31
0.00
0
LINE
8
FURNITURE
10
1200.00
20
8700.00
30
0.00
11
1200.00
21
7900.00
31
0.00
0
LINE
8
FURNITURE
10
400.00
20
5000.00
30
0.00
11
1900.00
21
5000.00
31
0.00
0
LINE
8
FURNITURE
10
1900.00
20
5000.00
30
0.00
11
1900.00
21
5500.00
31
0.00
0
LINE
8
FURNITURE
10
1900.00
20
5500.00
30
0.00
11
400.00
21
5500.00
31
0.00
0
LINE
8
FURNITURE
10
400.00
20
5500.00
30
0.00
11
400.00
21
5000.00
31
0.00
0
LINE
8
FURNITURE
10
6200.00
20
9200.00
30
0.00
11
9600.00
21
9200.00
31
0.00
0
LINE
8
FURNITURE
10
9600.00
20
9200.00
30
0.00
11
9600.00
21
9800.00
31
0.00
0
LINE
8
FURNITURE
10
9600.00
20
9800.00
30
0.00
11
6200.00
21
9800.00
31
0.00
0
LINE
8
FURNITURE
10
6200.00
20
9800.00
30
0.00
11
6200.00
21
9200.00
31
0.00
0
LINE
8
FURNITURE
10
9500.00
20
4800.00
30
0.00
11
10100.00
21
4800.00
31
0.00
0
LINE
8
FURNITURE
10
10100.00
20
4800.00
30
0.00
11
10100.00
21
8800.00
31
0.00
0
LINE
8
FURNITURE
10
10100.00
20
8800.00
30
0.00
11
9500.00
21
8800.00
31
0.00
0
LINE
8
FURNITURE
10
9500.00
20
8800.00
30
0.00
11
9500.00
21
4800.00
31
0.00
0
LINE
8
FURNITURE
10
7200.00
20
7200.00
30
0.00
11
8400.00
21
7200.00
31
0.00
0
LINE
8
FURNITURE
10
8400.00
20
7200.00
30
0.00
11
8400.00
21
8400.00
31
0.00
0
LINE
8
FURNITURE
10
8400.00
20
8400.00
30
0.00
11
7200.00
21
8400.00
31
0.00
0
LINE
8
FURNITURE
10
7200.00
20
8400.00
30
0.00
11
7200.00
21
7200.00
31
0.00
0
LINE
8
FURNITURE
10
6200.00
20
5000.00
30
0.00
11
7000.00
21
5000.00
31
0.00
0
LINE
8
FURNITURE
10
7000.00
20
5000.00
30
0.00
11
7000.00
21
5800.00
31
0.00
0
LINE
8
FURNITURE
10
7000.00
20
5800.00
30
0.00
11
6200.00
21
5800.00
31
0.00
0
LINE
8
FURNITURE
10
6200.00
20
5800.00
30
0.00
11
6200.00
21
5000.00
31
0.00
0
LINE
8
FURNITURE
10
7200.00
20
5000.00
30
0.00
11
7900.00
21
5000.00
31
0.00
0
LINE
8
FURNITURE
10
7900.00
20
5000.00
30
0.00
11
7900.00
21
5700.00
31
0.00
0
LINE
8
FURNITURE
10
7900.00
20
5700.00
30
0.00
11
7200.00
21
5700.00
31
0.00
0
LINE
8
FURNITURE
10
7200.00
20
5700.00
30
0.00
11
7200.00
21
5000.00
31
0.00
0
LINE
8
FURNITURE
10
400.00
20
2800.00
30
0.00
11
2400.00
21
2800.00
31
0.00
0
LINE
8
FURNITURE
10
2400.00
20
2800.00
30
0.00
11
2400.00
21
4300.00
31
0.00
0
LINE
8
FURNITURE
10
2400.00
20
4300.00
30
0.00
11
400.00
21
4300.00
31
0.00
0
LINE
8
FURNITURE
10
400.00
20
4300.00
30
0.00
11
400.00
21
2800.00
31
0.00
0
LINE
8
FURNITURE
10
3500.00
20
400.00
30
0.00
11
5300.00
21
400.00
31
0.00
0
LINE
8
FURNITURE
10
5300.00
20
400.00
30
0.00
11
5300.00
21
1600.00
31
0.00
0
LINE
8
FURNITURE
10
5300.00
20
1600.00
30
0.00
11
3500.00
21
1600.00
31
0.00
0
LINE
8
FURNITURE
10
3500.00
20
1600.00
30
0.00
11
3500.00
21
400.00
31
0.00
0
LINE
8
FURNITURE
10
400.00
20
400.00
30
0.00
11
1600.00
21
400.00
31
0.00
0
LINE
8
FURNITURE
10
1600.00
20
400.00
30
0.00
11
1600.00
21
1200.00
31
0.00
0
LINE
8
FURNITURE
10
1600.00
20
1200.00
30
0.00
11
400.00
21
1200.00
31
0.00
0
LINE
8
FURNITURE
10
400.00
20
1200.00
30
0.00
11
400.00
21
400.00
31
0.00
0
LINE
8
FURNITURE
10
5700.00
20
2800.00
30
0.00
11
7500.00
21
2800.00
31
0.00
0
LINE
8
FURNITURE
10
7500.00
20
2800.00
30
0.00
11
7500.00
21
4300.00
31
0.00
0
LINE
8
FURNITURE
10
7500.00
20
4300.00
30
0.00
11
5700.00
21
4300.00
31
0.00
0
LINE
8
FURNITURE
10
5700.00
20
4300.00
30
0.00
11
5700.00
21
2800.00
31
0.00
0
LINE
8
FURNITURE
10
7800.00
20
400.00
30
0.00
11
9600.00
21
400.00
31
0.00
0
LINE
8
FURNITURE
10
9600.00
20
400.00
30
0.00
11
9600.00
21
1600.00
31
0.00
0
LINE
8
FURNITURE
10
9600.00
20
1600.00
30
0.00
11
7800.00
21
1600.00
31
0.00
0
LINE
8
FURNITURE
10
7800.00
20
1600.00
30
0.00
11
7800.00
21
400.00
31
0.00
0
LINE
8
FURNITURE
10
10200.00
20
3000.00
30
0.00
11
11800.00
21
3000.00
31
0.00
0
LINE
8
FURNITURE
10
11800.00
20
3000.00
30
0.00
11
11800.00
21
3800.00
31
0.00
0
LINE
8
FURNITURE
10
11800.00
20
3800.00
30
0.00
11
10200.00
21
3800.00
31
0.00
0
LINE
8
FURNITURE
10
10200.00
20
3800.00
30
0.00
11
10200.00
21
3000.00
31
0.00
0
LINE
8
FURNITURE
10
10200.00
20
400.00
30
0.00
11
11000.00
21
400.00
31
0.00
0
LINE
8
FURNITURE
10
11000.00
20
400.00
30
0.00
11
11000.00
21
1000.00
31
0.00
0
LINE
8
FURNITURE
10
11000.00
20
1000.00
30
0.00
11
10200.00
21
1000.00
31
0.00
0
LINE
8
FURNITURE
10
10200.00
20
1000.00
30
0.00
11
10200.00
21
400.00
31
0.00
0
LINE
8
FURNITURE
10
12500.00
20
400.00
30
0.00
11
13700.00
21
400.00
31
0.00
0
LINE
8
FURNITURE
10
13700.00
20
400.00
30
0.00
11
13700.00
21
1300.00
31
0.00
0
LINE
8
FURNITURE
10
13700.00
20
1300.00
30
0.00
11
12500.00
21
1300.00
31
0.00
0
LINE
8
FURNITURE
10
12500.00
20
1300.00
30
0.00
11
12500.00
21
400.00
31
0.00
0
LINE
8
DIMENSIONS
10
0.00
20
0.00
30
0.00
11
0.00
21
-1200.00
31
0.00
0
LINE
8
DIMENSIONS
10
14000.00
20
0.00
30
0.00
11
14000.00
21
-1200.00
31
0.00
0
LINE
8
DIMENSIONS
10
0.00
20
-1200.00
30
0.00
11
14000.00
21
-1200.00
31
0.00
0
LINE
8
DIMENSIONS
10
0.00
20
10000.00
30
0.00
11
0.00
21
9200.00
31
0.00
0
LINE
8
DIMENSIONS
10
6000.00
20
10000.00
30
0.00
11
6000.00
21
9200.00
31
0.00
0
LINE
8
DIMENSIONS
10
0.00
20
9200.00
30
0.00
11
6000.00
21
9200.00
31
0.00
0
LINE
8
DIMENSIONS
10
6000.00
20
10000.00
30
0.00
11
6000.00
21
9200.00
31
0.00
0
LINE
8
DIMENSIONS
10
10000.00
20
10000.00
30
0.00
11
10000.00
21
9200.00
31
0.00
0
LINE
8
DIMENSIONS
10
6000.00
20
9200.00
30
0.00
11
10000.00
21
9200.00
31
0.00
0
LINE
8
DIMENSIONS
10
10000.00
20
10000.00
30
0.00
11
10000.00
21
9200.00
31
0.00
0
LINE
8
DIMENSIONS
10
14000.00
20
10000.00
30
0.00
11
14000.00
21
9200.00
31
0.00
0
LINE
8
DIMENSIONS
10
10000.00
20
9200.00
30
0.00
11
14000.00
21
9200.00
31
0.00
0
LINE
8
DIMENSIONS
10
0.00
20
0.00
30
0.00
11
-1200.00
21
0.00
31
0.00
0
LINE
8
DIMENSIONS
10
0.00
20
10000.00
30
0.00
11
-1200.00
21
10000.00
31
0.00
0
LINE
8
DIMENSIONS
10
-1200.00
20
0.00
30
0.00
11
-1200.00
21
10000.00
31
0.00
0
LINE
8
DIMENSIONS
10
14000.00
20
0.00
30
0.00
11
13200.00
21
0.00
31
0.00
0
LINE
8
DIMENSIONS
10
14000.00
20
4500.00
30
0.00
11
13200.00
21
4500.00
31
0.00
0
LINE
8
DIMENSIONS
10
13200.00
20
0.00
30
0.00
11
13200.00
21
4500.00
31
0.00
0
LINE
8
DIMENSIONS
10
14000.00
20
4500.00
30
0.00
11
13200.00
21
4500.00
31
0.00
0
LINE
8
DIMENSIONS
10
14000.00
20
10000.00
30
0.00
11
13200.00
21
10000.00
31
0.00
0
LINE
8
DIMENSIONS
10
13200.00
20
4500.00
30
0.00
11
13200.00
21
10000.00
31
0.00
0
ARC
8
DOOR_SWING
10
2200.00
20
4500.00
30
0.00
40
900.00
50
0.00
51
90.00
0
ARC
8
DOOR_SWING
10
5650.00
20
4500.00
30
0.00
40
900.00
50
90.00
51
180.00
0
ARC
8
DOOR_SWING
10
9400.00
20
4500.00
30
0.00
40
900.00
50
90.00
51
180.00
0
ARC
8
DOOR_SWING
10
10000.00
20
3800.00
30
0.00
40
900.00
50
0.00
51
90.00
0
ARC
8
DOOR_SWING
10
10000.00
20
7100.00
30
0.00
40
900.00
50
270.00
51
360.00
0
ARC
8
DOOR_SWING
10
10500.00
20
10000.00
30
0.00
40
900.00
50
90.00
51
180.00
0
TEXT
8
LABELS
10
1300.00
20
8200.00
30
0.00
40
150.00
1
SOFA
72
1
0
TEXT
8
LABELS
10
500.00
20
5150.00
30
0.00
40
150.00
1
TV UNIT
72
1
0
TEXT
8
LABELS
10
7000.00
20
7700.00
30
0.00
40
150.00
1
DINING TABLE
72
1
0
TEXT
8
LABELS
10
6300.00
20
5350.00
30
0.00
40
130.00
1
FRIDGE
72
1
0
TEXT
8
LABELS
10
7300.00
20
5300.00
30
0.00
40
130.00
1
STOVE
72
1
0
TEXT
8
LABELS
10
1000.00
20
3450.00
30
0.00
40
150.00
1
QUEEN BED
72
1
0
TEXT
8
LABELS
10
4100.00
20
900.00
30
0.00
40
150.00
1
WARDROBE
72
1
0
TEXT
8
LABELS
10
6300.00
20
3450.00
30
0.00
40
150.00
1
DOUBLE BED
72
1
0
TEXT
8
LABELS
10
8500.00
20
900.00
30
0.00
40
150.00
1
WARDROBE
72
1
0
TEXT
8
LABELS
10
10800.00
20
3350.00
30
0.00
40
130.00
1
BATHTUB
72
1
0
TEXT
8
LABELS
10
10250.00
20
650.00
30
0.00
40
130.00
1
WC
72
1
0
TEXT
8
LABELS
10
3000.00
20
8800.00
30
0.00
40
200.00
1
LIVING ROOM
72
1
0
TEXT
8
LABELS
10
3000.00
20
8500.00
30
0.00
40
150.00
1
33 m2
72
1
0
TEXT
8
LABELS
10
8000.00
20
8800.00
30
0.00
40
200.00
1
KITCHEN
72
1
0
TEXT
8
LABELS
10
8000.00
20
8500.00
30
0.00
40
150.00
1
22 m2
72
1
0
TEXT
8
LABELS
10
2400.00
20
3800.00
30
0.00
40
200.00
1
BEDROOM 1
72
1
0
TEXT
8
LABELS
10
2400.00
20
3500.00
30
0.00
40
150.00
1
24.75 m2
72
1
0
TEXT
8
LABELS
10
7600.00
20
3800.00
30
0.00
40
200.00
1
BEDROOM 2
72
1
0
TEXT
8
LABELS
10
7600.00
20
3500.00
30
0.00
40
150.00
1
20.25 m2
72
1
0
TEXT
8
LABELS
10
12000.00
20
3800.00
30
0.00
40
200.00
1
BATHROOM
72
1
0
TEXT
8
LABELS
10
12000.00
20
3500.00
30
0.00
40
150.00
1
18 m2
72
1
0
TEXT
8
LABELS
10
12000.00
20
8800.00
30
0.00
40
200.00
1
HALLWAY / ENTRY
72
1
0
TEXT
8
LABELS
10
12000.00
20
8500.00
30
0.00
40
150.00
1
22 m2
72
1
0
TEXT
8
DIMENSIONS
10
7000.00
20
-1400.00
30
0.00
40
180.00
1
14000 mm (14.0 m)
72
1
0
TEXT
8
DIMENSIONS
10
3000.00
20
9000.00
30
0.00
40
180.00
1
6000 mm
72
1
0
TEXT
8
DIMENSIONS
10
8000.00
20
9000.00
30
0.00
40
180.00
1
4000 mm
72
1
0
TEXT
8
DIMENSIONS
10
12000.00
20
9000.00
30
0.00
40
180.00
1
4000 mm
72
1
0
TEXT
8
DIMENSIONS
10
-1500.00
20
5000.00
30
0.00
40
180.00
1
10000 mm (10.0 m)
72
1
0
TEXT
8
DIMENSIONS
10
12900.00
20
2250.00
30
0.00
40
180.00
1
4500 mm
72
1
0
TEXT
8
DIMENSIONS
10
12900.00
20
7250.00
30
0.00
40
180.00
1
5500 mm
72
1
0
TEXT
8
TITLE_BLOCK
10
500.00
20
-2000.00
30
0.00
40
300.00
1
PROJECT: RESIDENTIAL HOUSE FLOOR PLAN
72
1
0
TEXT
8
TITLE_BLOCK
10
500.00
20
-2500.00
30
0.00
40
200.00
1
DRAWN BY: CodeAlpha Intern    DATE: MAY 2026    SCALE: 1:100    REV: 1.0
72
1
0
TEXT
8
TITLE_BLOCK
10
500.00
20
-3000.00
30
0.00
40
200.00
1
CODEALPHA INTERNSHIP - AUTOCAD TASK 1 - 2D DRAFTING
72
1
0
ENDSEC
0
EOF
